<svg data-v-423bf9ae="" xmlns="http://www.w3.org/2000/svg" viewBox="0 0 380 90" class="iconLeft"><!----><!----><!----><g data-v-423bf9ae="" id="7360a8ed-88ed-4336-8d21-1dec61992b23" fill="black" transform="matrix(5.7526364568010235,0,0,5.7526364568010235,122.1806118596196,11.203259966456365)"><path d="M7.87 0.67L7.87 0.67L5.07 5.88L5.07 11.09L2.72 11.09L2.72 5.88L-0.10 0.67L2.25 0.67L3.89 3.70L5.52 0.67L7.87 0.67ZM16.49 0.66L16.49 6.93L16.49 6.93Q16.48 7.76 16.18 8.50L16.18 8.50L16.18 8.50Q15.89 9.24 15.33 9.83L15.33 9.83L15.33 9.83Q14.76 10.44 14.02 10.77L14.02 10.77L14.02 10.77Q13.29 11.09 12.46 11.09L12.46 11.09L12.45 11.09L12.45 11.09Q11.63 11.09 10.90 10.77L10.90 10.77L10.90 10.77Q10.16 10.44 9.58 9.83L9.58 9.83L9.58 9.83Q9.03 9.24 8.73 8.50L8.73 8.50L8.73 8.50Q8.43 7.76 8.41 6.93L8.41 6.93L8.41 0.66L10.77 0.66L10.77 6.89L10.77 6.89Q10.77 7.27 10.90 7.60L10.90 7.60L10.90 7.60Q11.03 7.94 11.26 8.19L11.26 8.19L11.26 8.19Q11.49 8.44 11.80 8.59L11.80 8.59L11.80 8.59Q12.11 8.74 12.46 8.74L12.46 8.74L12.46 8.74Q12.81 8.74 13.11 8.59L13.11 8.59L13.11 8.59Q13.41 8.44 13.64 8.19L13.64 8.19L13.64 8.19Q13.87 7.94 14.01 7.60L14.01 7.60L14.01 7.60Q14.14 7.27 14.14 6.89L14.14 6.89L14.14 0.66L16.49 0.66ZM23.94 11.09L21.52 11.09L19.70 7.14L19.67 7.14L19.67 11.09L17.32 11.09L17.32 0.67L20.48 0.67L20.50 0.67L20.50 0.67Q21.17 0.67 21.76 0.92L21.76 0.92L21.76 0.92Q22.36 1.18 22.80 1.62L22.80 1.62L22.80 1.62Q23.24 2.06 23.49 2.65L23.49 2.65L23.49 2.65Q23.74 3.23 23.74 3.91L23.74 3.91L23.74 3.91Q23.74 4.86 23.25 5.62L23.25 5.62L23.25 5.62Q22.76 6.38 21.97 6.79L21.97 6.79L23.94 11.09ZM31.58 0.67L31.58 0.67L31.58 3.02L29.22 3.02L29.22 11.09L26.87 11.09L26.87 3.02L24.50 3.02L24.50 0.67L31.58 0.67ZM34.69 8.74L34.69 8.74L37.48 8.74L37.48 11.09L32.34 11.09L32.34 0.67L34.69 0.67L34.69 8.74ZM44.76 3.02L44.76 3.02L40.73 3.02L40.73 4.70L43.69 4.70L43.69 7.06L40.73 7.06L40.73 8.74L44.76 8.74L44.76 11.09L38.37 11.09L38.37 0.67L44.76 0.67L44.76 3.02Z"></path></g><!----><g data-v-423bf9ae="" id="45cfc2f5-2fd5-4103-bd03-ef23919b64f8" transform="matrix(1.7769698353718597,0,0,1.7769698353718597,-28.29712452549974,-34.13692215953674)" stroke="none" fill="black"><path d="M44.517 70.13a5.716 5.716 0 0 1-3.911-1.537c-2.746-2.21-24.525-20.151-24.525-33.061 0-9.301 6.75-16.05 16.049-16.05 4.889 0 9.443 2.199 12.477 5.957 3.002-3.726 7.646-5.957 12.605-5.957 9.3 0 16.048 6.749 16.048 16.05 0 5.464-4.037 12.557-11.998 21.088a1.629 1.629 0 0 1-2.297.078 1.628 1.628 0 0 1-.08-2.298c7.278-7.797 11.125-14.321 11.125-18.868 0-7.417-5.383-12.8-12.798-12.8-4.31 0-8.315 2.1-10.718 5.616l-1.913 2.425-1.723-2.22a12.767 12.767 0 0 0-10.729-5.821c-7.417 0-12.799 5.383-12.799 12.8 0 9.341 15.281 24.077 23.361 30.567l.106.092c.927.887 2.51.89 3.439 0l.105-.094c.145-.115 1.455-1.174 3.406-2.885a1.625 1.625 0 0 1 2.145 2.441 116.157 116.157 0 0 1-3.465 2.937 5.695 5.695 0 0 1-3.91 1.54z"></path></g><!----></svg>