<svg data-v-423bf9ae="" xmlns="http://www.w3.org/2000/svg" viewBox="0 0 258.06325301865803 60" class="font"><!----><!----><!----><g data-v-423bf9ae="" id="0b8e61d2-a434-4647-abed-16efef7818dd" fill="white" transform="matrix(5.7526364568010235,0,0,5.7526364568010235,0.5752651799321029,-3.796740033543635)"><path d="M7.87 0.67L7.87 0.67L5.07 5.88L5.07 11.09L2.72 11.09L2.72 5.88L-0.10 0.67L2.25 0.67L3.89 3.70L5.52 0.67L7.87 0.67ZM16.49 0.66L16.49 6.93L16.49 6.93Q16.48 7.76 16.18 8.50L16.18 8.50L16.18 8.50Q15.89 9.24 15.33 9.83L15.33 9.83L15.33 9.83Q14.76 10.44 14.02 10.77L14.02 10.77L14.02 10.77Q13.29 11.09 12.46 11.09L12.46 11.09L12.45 11.09L12.45 11.09Q11.63 11.09 10.90 10.77L10.90 10.77L10.90 10.77Q10.16 10.44 9.58 9.83L9.58 9.83L9.58 9.83Q9.03 9.24 8.73 8.50L8.73 8.50L8.73 8.50Q8.43 7.76 8.41 6.93L8.41 6.93L8.41 0.66L10.77 0.66L10.77 6.89L10.77 6.89Q10.77 7.27 10.90 7.60L10.90 7.60L10.90 7.60Q11.03 7.94 11.26 8.19L11.26 8.19L11.26 8.19Q11.49 8.44 11.80 8.59L11.80 8.59L11.80 8.59Q12.11 8.74 12.46 8.74L12.46 8.74L12.46 8.74Q12.81 8.74 13.11 8.59L13.11 8.59L13.11 8.59Q13.41 8.44 13.64 8.19L13.64 8.19L13.64 8.19Q13.87 7.94 14.01 7.60L14.01 7.60L14.01 7.60Q14.14 7.27 14.14 6.89L14.14 6.89L14.14 0.66L16.49 0.66ZM23.94 11.09L21.52 11.09L19.70 7.14L19.67 7.14L19.67 11.09L17.32 11.09L17.32 0.67L20.48 0.67L20.50 0.67L20.50 0.67Q21.17 0.67 21.76 0.92L21.76 0.92L21.76 0.92Q22.36 1.18 22.80 1.62L22.80 1.62L22.80 1.62Q23.24 2.06 23.49 2.65L23.49 2.65L23.49 2.65Q23.74 3.23 23.74 3.91L23.74 3.91L23.74 3.91Q23.74 4.86 23.25 5.62L23.25 5.62L23.25 5.62Q22.76 6.38 21.97 6.79L21.97 6.79L23.94 11.09ZM31.58 0.67L31.58 0.67L31.58 3.02L29.22 3.02L29.22 11.09L26.87 11.09L26.87 3.02L24.50 3.02L24.50 0.67L31.58 0.67ZM34.69 8.74L34.69 8.74L37.48 8.74L37.48 11.09L32.34 11.09L32.34 0.67L34.69 0.67L34.69 8.74ZM44.76 3.02L44.76 3.02L40.73 3.02L40.73 4.70L43.69 4.70L43.69 7.06L40.73 7.06L40.73 8.74L44.76 8.74L44.76 11.09L38.37 11.09L38.37 0.67L44.76 0.67L44.76 3.02Z"></path></g><!----><!----></svg>